<svg xmlns="http://www.w3.org/2000/svg" viewBox="0 0 64 64">
  <defs>
    <linearGradient id="bg" x1="10" y1="8" x2="54" y2="58" gradientUnits="userSpaceOnUse">
      <stop stop-color="#9b5cff"/>
      <stop offset="1" stop-color="#6d5dfc"/>
    </linearGradient>
    <filter id="glow" x="-35%" y="-35%" width="170%" height="170%">
      <feGaussianBlur stdDeviation="3.5" result="blur"/>
      <feMerge>
        <feMergeNode in="blur"/>
        <feMergeNode in="SourceGraphic"/>
      </feMerge>
    </filter>
  </defs>
  <rect width="64" height="64" rx="12" fill="#151522"/>
  <rect x="4" y="4" width="56" height="56" rx="10" fill="url(#bg)"/>
  <path
    d="M32 12l3.85 10.15L46 26l-10.15 3.85L32 40l-3.85-10.15L18 26l10.15-3.85L32 12zM47 38l1.85 4.15L53 44l-4.15 1.85L47 50l-1.85-4.15L41 44l4.15-1.85L47 38zM18 39l1.35 3.65L23 44l-3.65 1.35L18 49l-1.35-3.65L13 44l3.65-1.35L18 39z"
    fill="#ffffff"
    filter="url(#glow)"
  />
</svg>
